:FULLY-SPECIFIED
:DEGREES
133
root -0.567874014377594 -0.567874014377594 -0.567874014377594 -0.5678755879732001 -0.5678755879732001 -0.5678755879732001
lhipjoint -9.671654586443837e-08 -1.5341245206083327e-07 1.0672170578144923e-06
lfemur -16.015045075252377 -3.7002814498374414 -14.354856606906766
ltibia 20.759005897250802 -1.1150226775652604e-06 -4.865114858506332e-07
lfoot -17.82601679971519 1.0848776347387236e-06 13.98117866496266
ltoes -52.91151865089157 -6.09998480580138e-07 4.989043517781124e-07
rhipjoint 1.1005675908711953e-07 6.870210827458292e-07 -1.494104084495789e-06
rfemur -7.094926875355622 5.711171530646059 10.918507326976957
rtibia 2.078823142293564 1.1175380128739865e-07 -1.6859397744414474e-06
rfoot -16.235301600512365 2.9062237488561788e-06 -15.898503264991742
rtoes -3.892046267861543 5.669779417365382e-07 -2.602142569313805e-07
lowerback 22.776560108255236 0.7975066545907347 -1.3621583932756887
upperback 0.9871669205768255 0.7872750312140555 0.989626322286559
thorax -11.773778492204077 0.4698759804010043 1.6268284370570945
lowerneck -11.457395592112624 -2.029057957114028 -1.9248847656666397
upperneck 23.5797988923852 -3.0151462414105206 2.3060364286666197
head 9.370881229926802 -1.331763944747426 0.7745436119620046
lclavicle -1.4085775951116125e-07 5.4855408257763046e-08 -1.0938974842598547e-06
lhumerus 15.283410579286244 36.07584342233509 21.96076743643079
lradius 25.654757428269004 -8.895758017456438e-07 1.6107542097708945e-06
lwrist -1.6119064356764578e-06 -57.46384997798883 3.886701940730796e-07
lhand -4.562975323145072 2.6246558075710764e-07 -26.656099019086014
lfingers 7.125022823272814 9.845282338726802e-08 3.18924141240953e-07
lthumb 21.213298854421275 -1.2803152392500461e-07 2.20318914769186
rclavicle 1.398304276268298e-07 4.3880174074018323e-07 -1.3740421654916584e-06
rhumerus 11.24691648264951 -32.210390069120166 -16.091654184530533
rradius 33.18760230914682 -2.439543453999907e-07 -3.50511659759952e-06
rwrist 4.2639210692842335e-07 42.171800916949806 9.531723411566916e-07
rhand -6.972260092956778 2.0321462048512455e-07 -36.68780446630613
rfingers 7.125022396385991 5.1024341088409163e-08 -3.1892353057445414e-07
rthumb 18.897492480477187 1.5447771905696147e-06 -65.78980959509936
134
root -0.567874014377594 -0.567874014377594 -0.567874014377594 -0.5678755879732001 -0.5678755879732001 -0.5678755879732001
lhipjoint -9.671654586443837e-08 -1.5341245206083327e-07 1.0672170578144923e-06
lfemur -16.263605904432897 -3.6024727140360358 -14.515518024111099
ltibia 21.24284796031804 -1.1866941618682326e-06 3.919041820731917e-07
lfoot -18.047465192985346 -7.317221757942395e-07 13.679064883821011
ltoes -53.18832914247926 -5.982605544726659e-07 1.5767327577874651e-06
rhipjoint 1.1005675908711953e-07 6.870210827458292e-07 -1.494104084495789e-06
rfemur -7.099012609139759 5.485419691311974 10.962600466937621
rtibia 2.31247025342136 9.742736166908929e-08 -1.6838692078993771e-06
rfoot -16.61047364633741 6.79882391374378e-07 -15.732362328525767
rtoes -3.6566506283062234 5.792865865760522e-07 -4.1664462282948596e-07
lowerback 22.55503658290421 0.8000202709270051 -1.2394473213689454
upperback 0.6794125771195083 0.8415887488548498 1.055442025128802
thorax -11.946121240436423 0.4931942995882807 1.6067066997622368
lowerneck -11.457395592112624 -2.029057957114028 -1.9248847656666397
upperneck 23.5797988923852 -3.0151462414105206 2.3060364286666197
head 9.370881229926802 -1.331763944747426 0.7745436119620046
lclavicle -1.4085775951116125e-07 5.4855408257763046e-08 -1.0938974842598547e-06
lhumerus 6.983620405093802 34.62229720468633 17.22999400217237
lradius 26.878001619935976 -2.0825926009873765e-07 2.8535061313442335e-06
lwrist -1.5114569872823542e-06 -56.10991523919554 3.644492523962368e-07
lhand -4.562975323145072 2.6246558075710764e-07 -26.656099019086014
lfingers 7.125022823272814 9.845282338726802e-08 3.18924141240953e-07
lthumb 21.213298854421275 -1.2803152392500461e-07 2.20318914769186
rclavicle 1.398304276268298e-07 4.3880174074018323e-07 -1.3740421654916584e-06
rhumerus 3.5945240813894337 -31.719849298024435 -12.687323123882452
rradius 34.06335550414751 -1.1078328937634062e-06 -3.968607177776845e-06
rwrist 4.3405670937756397e-07 42.59775883434848 9.703032666709283e-07
rhand -6.972260092956778 2.0321462048512455e-07 -36.68780446630613
rfingers 7.125022396385991 5.1024341088409163e-08 -3.1892353057445414e-07
rthumb 18.897492480477187 1.5447771905696147e-06 -65.78980959509936
135
root -0.567874014377594 -0.567874014377594 -0.567874014377594 -0.5678755879732001 -0.5678755879732001 -0.5678755879732001
lhipjoint -9.671654586443837e-08 -1.5341245206083327e-07 1.0672170578144923e-06
lfemur -16.53814023547968 -3.4845023270218105 -14.75494006018214
ltibia 21.819396180989866 -9.617907792325844e-07 -4.393422823694073e-07
lfoot -18.294922946614907 1.3073529055972304e-06 13.364219630066456
ltoes -53.62956277795667 2.8209387780722943e-07 2.233023779200868e-06
rhipjoint 1.1005675908711953e-07 6.870210827458292e-07 -1.494104084495789e-06
rfemur -7.019069940659814 5.26044777420374 11.036969274168012
rtibia 2.4495655969984447 9.10282892054843e-08 -8.284820789800956e-07
rfoot -16.96296604902343 1.4489995444471443e-06 -15.647258171467408
rtoes -3.474352879358583 -2.611135651286737e-07 -3.9991755142648284e-07
lowerback 22.454477415301408 0.8150876682360532 -1.1039227078575524
upperback 0.37189005988757495 0.9166525811941428 1.130041351243681
thorax -12.196216300859255 0.5276458804835308 1.5883472579949482
lowerneck -11.457395592112624 -2.029057957114028 -1.9248847656666397
upperneck 23.5797988923852 -3.0151462414105206 2.3060364286666197
head 9.370881229926802 -1.331763944747426 0.7745436119620046
lclavicle -1.4085775951116125e-07 5.4855408257763046e-08 -1.0938974842598547e-06
lhumerus -0.9231020940396332 32.53810254549738 13.92280616076844
lradius 28.653411964485116 7.782643265589056e-07 2.9275954478716166e-06
lwrist -1.3665724928778354e-06 -53.93152885625752 3.295128693309188e-07
lhand -4.562975323145072 2.6246558075710764e-07 -26.656099019086014
lfingers 7.125022823272814 9.845282338726802e-08 3.18924141240953e-07
lthumb 21.213298854421275 -1.2803152392500461e-07 2.20318914769186
rclavicle 1.398304276268298e-07 4.3880174074018323e-07 -1.3740421654916584e-06
rhumerus -4.060862930934871 -30.86539263285584 -10.055470236663533
rradius 35.423949677381565 -1.5262615787692561e-06 -3.011310496864731e-06
rwrist 4.291914784924229e-07 42.32823273951061 9.594246501050752e-07
rhand -6.972260092956778 2.0321462048512455e-07 -36.68780446630613
rfingers 7.125022396385991 5.1024341088409163e-08 -3.1892353057445414e-07
rthumb 18.897492480477187 1.5447771905696147e-06 -65.78980959509936
136
root -0.567874014377594 -0.567874014377594 -0.567874014377594 -0.5678755879732001 -0.5678755879732001 -0.5678755879732001
lhipjoint -9.671654586443837e-08 -1.5341245206083327e-07 1.0672170578144923e-06
lfemur -16.77548760159033 -3.3551665052286834 -15.078014838112914
ltibia 22.475377794161645 -1.1304898422034048e-06 -4.6108994839263167e-07
lfoot -18.605179167020857 1.0372078882839477e-06 13.114250928143269
ltoes -54.25782406838196 -1.4095395984027867e-06 9.855066233815734e-07
rhipjoint 1.1005675908711953e-07 6.870210827458292e-07 -1.494104084495789e-06
rfemur -6.834383333049962 5.088244191075733 11.154404985436273
rtibia 2.484973297655791 1.2739444610008873e-07 -8.273325501849023e-07
rfoot -17.27779337353141 9.480684923371285e-07 -15.637695906629391
rtoes -3.4079085856692872 -2.5247670528006584e-07 -2.7757504749355584e-07
lowerback 22.46379208578201 0.856478401162919 -0.9895715740514932
upperback 0.0844210781103981 1.0179030920070002 1.2008430921800333
thorax -12.495487869532536 0.5763588430049147 1.5734029108126661
lowerneck -11.457395592112624 -2.029057957114028 -1.9248847656666397
upperneck 23.5797988923852 -3.0151462414105206 2.3060364286666197
head 9.370881229926802 -1.331763944747426 0.7745436119620046
lclavicle -1.4085775951116125e-07 5.4855408257763046e-08 -1.0938974842598547e-06
lhumerus -8.02839730327704 29.964449700196138 12.42090135002235
lradius 30.94766567650323 -2.6112991063529263e-06 2.36655211583744e-06
lwrist -1.2140140579156314e-06 -51.29036642119988 2.927296017731685e-07
lhand -4.562975323145072 2.6246558075710764e-07 -26.656099019086014
lfingers 7.125022823272814 9.845282338726802e-08 3.18924141240953e-07
lthumb 21.213298854421275 -1.2803152392500461e-07 2.20318914769186
rclavicle 1.398304276268298e-07 4.3880174074018323e-07 -1.3740421654916584e-06
rhumerus -11.397839757644697 -29.646852733979717 -8.657861560769891
rradius 37.4097520464819 -1.5510334688502406e-06 -3.479706764582746e-06
rwrist 4.1198483033232995e-07 41.34923782011059 9.209641615638207e-07
rhand -6.972260092956778 2.0321462048512455e-07 -36.68780446630613
rfingers 7.125022396385991 5.1024341088409163e-08 -3.1892353057445414e-07
rthumb 18.897492480477187 1.5447771905696147e-06 -65.78980959509936
